<svg width="20" height="20" viewBox="0 0 20 20" fill="none" xmlns="http://www.w3.org/2000/svg">
<path opacity="0.3" d="M18 10C18 14.4192 14.4184 18 10 18C5.5816 18 2 14.4192 2 10C2 5.5824 5.5816 2 10 2C14.4184 2 18 5.5824 18 10Z" fill="#FF6640"/>
<path d="M12.8578 13.0516C12.753 13.0516 12.6474 13.0244 12.5506 12.9676L9.4098 11.094C9.229 10.9852 9.1178 10.7892 9.1178 10.578V6.54043C9.1178 6.20923 9.3866 5.94043 9.7178 5.94043C10.049 5.94043 10.3178 6.20923 10.3178 6.54043V10.2372L13.1658 11.9356C13.4498 12.106 13.5434 12.474 13.3738 12.7588C13.261 12.9468 13.0618 13.0516 12.8578 13.0516Z" fill="#FF6640"/>
</svg>
