<svg width="44" height="44" viewBox="0 0 44 44" fill="none" xmlns="http://www.w3.org/2000/svg">
<circle cx="22" cy="22" r="20" fill="#FFD080"/>
<circle cx="22" cy="22" r="21" fill="url(#paint0_radial_7623_11617)" stroke="white" stroke-width="2"/>
<mask id="mask0_7623_11617" style="mask-type:alpha" maskUnits="userSpaceOnUse" x="2" y="2" width="40" height="40">
<circle cx="22" cy="22" r="20" fill="#C4C4C4"/>
</mask>
<g mask="url(#mask0_7623_11617)">
<path d="M32.257 33.1895L26.7679 31.5751H17.2332L11.7441 33.1895C10.4142 33.5807 9.50098 34.8012 9.50098 36.1875V40.7501C9.50098 41.613 10.2005 42.3126 11.0634 42.3126H32.9377C33.8006 42.3126 34.5001 41.613 34.5001 40.7501V36.1875C34.5001 34.8012 33.5869 33.5807 32.257 33.1895Z" fill="url(#paint1_linear_7623_11617)"/>
<path d="M24.6042 42.3127H19.3961L18.3545 31.8964H25.6459L24.6042 42.3127Z" fill="url(#paint2_linear_7623_11617)"/>
<path d="M18.3545 31.8964L18.5104 33.4554C19.3687 34.4143 20.6121 35.0213 22.0002 35.0213C23.3884 35.0213 24.6318 34.4143 25.4901 33.4554L25.646 31.8964H18.3545Z" fill="url(#paint3_linear_7623_11617)"/>
<path d="M22.0002 33.9789C19.9867 33.9789 18.3545 32.3467 18.3545 30.3332V26.6875H25.6459V30.3332C25.6459 32.3467 24.0137 33.9789 22.0002 33.9789Z" fill="url(#paint4_linear_7623_11617)"/>
<path d="M18.3545 28.8911C19.4487 29.4755 20.6894 29.8124 22.0002 29.8124C23.3109 29.8124 24.5517 29.4755 25.6459 28.8911V26.6875H18.3545V28.8911Z" fill="url(#paint5_linear_7623_11617)"/>
<path d="M29.0316 19.9175H28.7712V14.7094H15.2299V19.9175H14.9695C14.2534 19.9175 13.6675 20.5034 13.6675 21.2196C13.6675 21.9357 14.2534 22.5216 14.9695 22.5216H15.2562C15.523 26.0167 18.437 28.7714 22.0005 28.7714C25.564 28.7714 28.4781 26.0167 28.7449 22.5216H29.0316C29.7477 22.5216 30.3336 21.9357 30.3336 21.2196C30.3336 20.5034 29.7477 19.9175 29.0316 19.9175Z" fill="url(#paint6_linear_7623_11617)"/>
<path d="M18.8753 21.5252C18.5874 21.5252 18.3545 21.292 18.3545 21.0044V20.4836C18.3545 20.196 18.5875 19.9628 18.8753 19.9628C19.1631 19.9628 19.3961 20.196 19.3961 20.4836V21.0044C19.3961 21.2921 19.1631 21.5252 18.8753 21.5252Z" fill="url(#paint7_radial_7623_11617)"/>
<path d="M25.1248 21.5251C24.8369 21.5251 24.604 21.2919 24.604 21.0043V20.4835C24.604 20.1959 24.837 19.9627 25.1248 19.9627C25.4127 19.9627 25.6456 20.1959 25.6456 20.4835V21.0043C25.6456 21.292 25.4127 21.5251 25.1248 21.5251Z" fill="url(#paint8_radial_7623_11617)"/>
<path d="M19.3964 19.3957H18.3548C18.0669 19.3957 17.834 19.1625 17.834 18.8749C17.834 18.5873 18.067 18.3541 18.3548 18.3541H19.3964C19.6843 18.3541 19.9172 18.5873 19.9172 18.8749C19.9172 19.1625 19.6843 19.3957 19.3964 19.3957Z" fill="url(#paint9_linear_7623_11617)"/>
<path d="M25.6459 19.3958H24.6043C24.3164 19.3958 24.0835 19.1626 24.0835 18.875C24.0835 18.5874 24.3165 18.3542 24.6043 18.3542H25.6459C25.9338 18.3542 26.1667 18.5874 26.1667 18.875C26.1667 19.1626 25.9338 19.3958 25.6459 19.3958Z" fill="url(#paint10_linear_7623_11617)"/>
<path d="M15.2299 14.7094V19.9175H15.0152C14.4223 19.9175 13.8684 20.2933 13.7148 20.8661C13.4825 21.7322 14.1383 22.5217 14.9695 22.5217H15.2562C15.523 26.0168 18.437 28.7715 22.0005 28.7715C22.3568 28.7715 22.7042 28.7368 23.0454 28.6837C19.8004 28.1829 17.3132 25.3862 17.3132 22.0009V18.8359C17.3132 17.6132 18.3458 16.6179 19.5644 16.7183C19.9055 16.7464 20.2637 16.7614 20.64 16.7614C22.1502 16.7614 23.8364 16.5204 25.652 16.045C26.4453 15.8373 27.1276 15.3539 27.5937 14.7094H15.2299Z" fill="url(#paint11_linear_7623_11617)"/>
<path d="M17.7686 12.625L17.8337 14.7083C17.8337 14.7083 16.2713 16.2707 16.2713 18.354V18.9969C16.2713 19.5222 15.8802 19.9653 15.3588 20.0305L14.188 20.1769V15.75C14.1881 14.0241 15.8156 12.5383 17.7686 12.625Z" fill="url(#paint12_linear_7623_11617)"/>
<path d="M28.2403 34.4898L27.2087 33.4582L28.3127 31.9863C28.5514 31.6679 28.4436 31.2112 28.0877 31.0332L25.6462 29.8125L22.0005 42.3121H25.1254L28.4353 35.6922C28.6358 35.2911 28.5572 34.8068 28.2403 34.4898Z" fill="url(#paint13_linear_7623_11617)"/>
<path d="M26.2321 11.0625L26.167 14.7082C26.167 14.7082 27.7294 16.2707 27.7294 18.3539V18.9968C27.7294 19.5221 28.1206 19.9652 28.6419 20.0304L29.8127 20.1768V14.1875C29.8127 12.4616 28.1852 10.9758 26.2321 11.0625Z" fill="url(#paint14_linear_7623_11617)"/>
<path d="M22.0003 25.1252C21.2186 25.1252 20.4978 24.8744 20.0721 24.4543C19.8672 24.2519 19.8651 23.9224 20.067 23.7179C20.27 23.5129 20.5996 23.5109 20.8035 23.7128C20.9769 23.8837 21.394 24.0836 22.0002 24.0836C22.6065 24.0836 23.0236 23.8837 23.197 23.7128C23.401 23.5108 23.7306 23.5129 23.9334 23.7179C24.1354 23.9224 24.1333 24.252 23.9283 24.4543C23.5028 24.8744 22.782 25.1252 22.0003 25.1252Z" fill="#DEA672"/>
<path d="M15.7607 34.4898L16.7923 33.4582L15.6883 31.9863C15.4496 31.6679 15.5574 31.2112 15.9132 31.0332L18.3547 29.8125L22.0004 42.3121H18.8755L15.5656 35.6922C15.3651 35.2911 15.4436 34.8068 15.7607 34.4898Z" fill="url(#paint15_linear_7623_11617)"/>
<path d="M23.0093 10.0221C18.6641 10.0221 17.8313 11.3431 14.4854 12.4088C14.2554 12.482 14.152 12.7483 14.2819 12.9516C15.008 14.0873 17.7103 17.0476 25.3879 15.0374C26.2869 14.8021 26.9783 14.0772 27.1605 13.1658C27.3717 12.11 26.73 11.0644 25.7653 10.5863C24.999 10.2066 23.9941 10.0221 23.0093 10.0221Z" fill="url(#paint16_linear_7623_11617)"/>
</g>
<defs>
<radialGradient id="paint0_radial_7623_11617" cx="0" cy="0" r="1" gradientUnits="userSpaceOnUse" gradientTransform="translate(8.53333 6.53333) rotate(53.9454) scale(41.2308)">
<stop offset="0.356879" stop-color="#FFD080"/>
<stop offset="1" stop-color="#FFBB80"/>
</radialGradient>
<linearGradient id="paint1_linear_7623_11617" x1="22.0006" y1="31.5751" x2="22.0006" y2="42.3126" gradientUnits="userSpaceOnUse">
<stop stop-color="#6B2BF2"/>
<stop offset="1" stop-color="#BB9BFF"/>
</linearGradient>
<linearGradient id="paint2_linear_7623_11617" x1="21.9998" y1="33.6672" x2="22.0002" y2="42.3127" gradientUnits="userSpaceOnUse">
<stop stop-color="#8CD3FF"/>
<stop offset="1" stop-color="#CFECFF"/>
</linearGradient>
<linearGradient id="paint3_linear_7623_11617" x1="19.9165" y1="33.6672" x2="23.2498" y2="35.3339" gradientUnits="userSpaceOnUse">
<stop stop-color="#73B6E6"/>
<stop offset="1" stop-color="#92CCF5"/>
</linearGradient>
<linearGradient id="paint4_linear_7623_11617" x1="19.9948" y1="28.0916" x2="24.9284" y2="32.4353" gradientUnits="userSpaceOnUse">
<stop stop-color="#E6AC82"/>
<stop offset="1" stop-color="#F2CBAF"/>
</linearGradient>
<linearGradient id="paint5_linear_7623_11617" x1="18.6665" y1="28.25" x2="23.2965" y2="32.3027" gradientUnits="userSpaceOnUse">
<stop stop-color="#E6A470"/>
<stop offset="1" stop-color="#E6A370" stop-opacity="0"/>
</linearGradient>
<linearGradient id="paint6_linear_7623_11617" x1="17.4168" y1="17.4173" x2="27.0002" y2="27.4173" gradientUnits="userSpaceOnUse">
<stop stop-color="#F3B68A"/>
<stop offset="1" stop-color="#FED5B8"/>
</linearGradient>
<radialGradient id="paint7_radial_7623_11617" cx="0" cy="0" r="1" gradientUnits="userSpaceOnUse" gradientTransform="translate(18.6679 20.4301) rotate(71.565) scale(1.31748 0.878321)">
<stop stop-color="#040404"/>
<stop offset="1" stop-color="#767676"/>
</radialGradient>
<radialGradient id="paint8_radial_7623_11617" cx="0" cy="0" r="1" gradientUnits="userSpaceOnUse" gradientTransform="translate(24.9174 20.43) rotate(71.5651) scale(1.31748 0.87832)">
<stop stop-color="#040404"/>
<stop offset="1" stop-color="#767676"/>
</radialGradient>
<linearGradient id="paint9_linear_7623_11617" x1="18.2501" y1="18.2495" x2="18.8756" y2="19.3957" gradientUnits="userSpaceOnUse">
<stop stop-color="#70482B"/>
<stop offset="1" stop-color="#70482B" stop-opacity="0.49"/>
</linearGradient>
<linearGradient id="paint10_linear_7623_11617" x1="24.4996" y1="18.2496" x2="25.1251" y2="19.3958" gradientUnits="userSpaceOnUse">
<stop stop-color="#70482B"/>
<stop offset="1" stop-color="#70482B" stop-opacity="0.49"/>
</linearGradient>
<linearGradient id="paint11_linear_7623_11617" x1="15.7502" y1="14.9173" x2="20.6306" y2="28.7715" gradientUnits="userSpaceOnUse">
<stop stop-color="#EBA873"/>
<stop offset="1" stop-color="#EBA773" stop-opacity="0"/>
</linearGradient>
<linearGradient id="paint12_linear_7623_11617" x1="14.4999" y1="19.9161" x2="19.2658" y2="17.8578" gradientUnits="userSpaceOnUse">
<stop stop-color="#99633C"/>
<stop offset="1" stop-color="#412A18"/>
</linearGradient>
<linearGradient id="paint13_linear_7623_11617" x1="25.2729" y1="29.8125" x2="25.2729" y2="42.3121" gradientUnits="userSpaceOnUse">
<stop stop-color="#864DFF"/>
<stop offset="1" stop-color="#D3BFFF"/>
</linearGradient>
<linearGradient id="paint14_linear_7623_11617" x1="29.9168" y1="20.3328" x2="32.7719" y2="14.7268" gradientUnits="userSpaceOnUse">
<stop stop-color="#99633C"/>
<stop offset="1" stop-color="#412A18"/>
</linearGradient>
<linearGradient id="paint15_linear_7623_11617" x1="18.728" y1="29.8125" x2="18.728" y2="42.3121" gradientUnits="userSpaceOnUse">
<stop stop-color="#864DFF"/>
<stop offset="1" stop-color="#D3BFFF"/>
</linearGradient>
<linearGradient id="paint16_linear_7623_11617" x1="14.9165" y1="13.2507" x2="26.5831" y2="11.1673" gradientUnits="userSpaceOnUse">
<stop stop-color="#8A5936"/>
<stop offset="1" stop-color="#412A18"/>
</linearGradient>
</defs>
</svg>
