<svg width="77" height="28" viewBox="0 0 77 28" fill="none" xmlns="http://www.w3.org/2000/svg">
<path d="M7.268 21.104C6.00267 21.104 4.86733 20.792 3.862 20.168C2.85667 19.5267 2.05933 18.6687 1.47 17.594C0.898 16.502 0.612 15.2713 0.612 13.902C0.612 12.5327 0.924 11.302 1.548 10.21C2.18933 9.118 3.04733 8.26 4.122 7.636C5.214 6.99467 6.436 6.674 7.788 6.674C9.14 6.674 10.3533 6.99467 11.428 7.636C12.5027 8.26 13.352 9.118 13.976 10.21C14.6173 11.302 14.938 12.5327 14.938 13.902H13.924C13.924 15.2713 13.6293 16.502 13.04 17.594C12.468 18.6687 11.6793 19.5267 10.674 20.168C9.66867 20.792 8.53333 21.104 7.268 21.104ZM7.788 18.764C8.672 18.764 9.46067 18.556 10.154 18.14C10.8473 17.7067 11.3933 17.126 11.792 16.398C12.1907 15.6527 12.39 14.8207 12.39 13.902C12.39 12.966 12.1907 12.134 11.792 11.406C11.3933 10.6607 10.8473 10.08 10.154 9.664C9.46067 9.23067 8.672 9.014 7.788 9.014C6.92133 9.014 6.13267 9.23067 5.422 9.664C4.72867 10.08 4.174 10.6607 3.758 11.406C3.35933 12.134 3.16 12.966 3.16 13.902C3.16 14.8207 3.35933 15.6527 3.758 16.398C4.174 17.126 4.72867 17.7067 5.422 18.14C6.13267 18.556 6.92133 18.764 7.788 18.764ZM13.612 21.026C13.2307 21.026 12.91 20.9047 12.65 20.662C12.4073 20.402 12.286 20.0813 12.286 19.7V15.722L12.78 12.966L14.938 13.902V19.7C14.938 20.0813 14.808 20.402 14.548 20.662C14.3053 20.9047 13.9933 21.026 13.612 21.026ZM22.2649 21C21.5023 21 20.8263 20.792 20.2369 20.376C19.6476 19.96 19.1883 19.3967 18.8589 18.686C18.5296 17.958 18.3649 17.126 18.3649 16.19V1.994C18.3649 1.61267 18.4863 1.30067 18.7289 1.058C18.9716 0.815333 19.2836 0.694 19.6649 0.694C20.0463 0.694 20.3583 0.815333 20.6009 1.058C20.8436 1.30067 20.9649 1.61267 20.9649 1.994V16.19C20.9649 16.8313 21.0863 17.36 21.3289 17.776C21.5716 18.192 21.8836 18.4 22.2649 18.4H22.9149C23.2616 18.4 23.5389 18.5213 23.7469 18.764C23.9723 19.0067 24.0849 19.3187 24.0849 19.7C24.0849 20.0813 23.9203 20.3933 23.5909 20.636C23.2616 20.8787 22.8369 21 22.3169 21H22.2649ZM28.0058 27.084C27.6245 27.084 27.3038 26.954 27.0438 26.694C26.8012 26.4513 26.6798 26.1393 26.6798 25.758V13.902C26.6972 12.5327 27.0178 11.302 27.6418 10.21C28.2658 9.118 29.1152 8.26 30.1898 7.636C31.2645 6.99467 32.4778 6.674 33.8298 6.674C35.1992 6.674 36.4212 6.99467 37.4958 7.636C38.5705 8.26 39.4198 9.118 40.0438 10.21C40.6852 11.302 41.0058 12.5327 41.0058 13.902C41.0058 15.2713 40.7112 16.502 40.1218 17.594C39.5498 18.6687 38.7612 19.5267 37.7558 20.168C36.7505 20.792 35.6152 21.104 34.3498 21.104C33.3272 21.104 32.3825 20.896 31.5158 20.48C30.6665 20.0467 29.9385 19.466 29.3318 18.738V25.758C29.3318 26.1393 29.2105 26.4513 28.9678 26.694C28.7252 26.954 28.4045 27.084 28.0058 27.084ZM33.8298 18.764C34.7138 18.764 35.5025 18.556 36.1958 18.14C36.8892 17.7067 37.4352 17.126 37.8338 16.398C38.2498 15.6527 38.4578 14.8207 38.4578 13.902C38.4578 12.966 38.2498 12.134 37.8338 11.406C37.4352 10.6607 36.8892 10.08 36.1958 9.664C35.5025 9.23067 34.7138 9.014 33.8298 9.014C32.9632 9.014 32.1745 9.23067 31.4638 9.664C30.7705 10.08 30.2245 10.6607 29.8258 11.406C29.4272 12.134 29.2278 12.966 29.2278 13.902C29.2278 14.8207 29.4272 15.6527 29.8258 16.398C30.2245 17.126 30.7705 17.7067 31.4638 18.14C32.1745 18.556 32.9632 18.764 33.8298 18.764ZM46.2871 15.826C45.9058 15.826 45.5851 15.7047 45.3251 15.462C45.0824 15.202 44.9611 14.8813 44.9611 14.5V2.02C44.9611 1.62133 45.0824 1.30067 45.3251 1.058C45.5851 0.815333 45.9058 0.694 46.2871 0.694C46.6858 0.694 47.0064 0.815333 47.2491 1.058C47.4918 1.30067 47.6131 1.62133 47.6131 2.02V14.5C47.6131 14.8813 47.4918 15.202 47.2491 15.462C47.0064 15.7047 46.6858 15.826 46.2871 15.826ZM56.9731 21.026C56.5918 21.026 56.2711 20.9047 56.0111 20.662C55.7684 20.402 55.6471 20.0813 55.6471 19.7V13.304C55.6471 12.316 55.4651 11.51 55.1011 10.886C54.7371 10.262 54.2431 9.80267 53.6191 9.508C53.0124 9.196 52.3104 9.04 51.5131 9.04C50.7851 9.04 50.1264 9.18733 49.5371 9.482C48.9478 9.77667 48.4798 10.1753 48.1331 10.678C47.7864 11.1633 47.6131 11.7267 47.6131 12.368H45.9751C45.9751 11.276 46.2351 10.3053 46.7551 9.456C47.2924 8.58933 48.0204 7.90467 48.9391 7.402C49.8578 6.89933 50.8891 6.648 52.0331 6.648C53.2291 6.648 54.2951 6.908 55.2311 7.428C56.1844 7.93067 56.9298 8.676 57.4671 9.664C58.0218 10.652 58.2991 11.8653 58.2991 13.304V19.7C58.2991 20.0813 58.1691 20.402 57.9091 20.662C57.6664 20.9047 57.3544 21.026 56.9731 21.026ZM46.2871 21.026C45.9058 21.026 45.5851 20.9047 45.3251 20.662C45.0824 20.402 44.9611 20.0813 44.9611 19.7V8.104C44.9611 7.70533 45.0824 7.38467 45.3251 7.142C45.5851 6.89933 45.9058 6.778 46.2871 6.778C46.6858 6.778 47.0064 6.89933 47.2491 7.142C47.4918 7.38467 47.6131 7.70533 47.6131 8.104V19.7C47.6131 20.0813 47.4918 20.402 47.2491 20.662C47.0064 20.9047 46.6858 21.026 46.2871 21.026ZM68.6371 21.104C67.3718 21.104 66.2365 20.792 65.2311 20.168C64.2258 19.5267 63.4285 18.6687 62.8391 17.594C62.2671 16.502 61.9811 15.2713 61.9811 13.902C61.9811 12.5327 62.2931 11.302 62.9171 10.21C63.5585 9.118 64.4165 8.26 65.4911 7.636C66.5831 6.99467 67.8051 6.674 69.1571 6.674C70.5091 6.674 71.7225 6.99467 72.7971 7.636C73.8718 8.26 74.7211 9.118 75.3451 10.21C75.9865 11.302 76.3071 12.5327 76.3071 13.902H75.2931C75.2931 15.2713 74.9985 16.502 74.4091 17.594C73.8371 18.6687 73.0485 19.5267 72.0431 20.168C71.0378 20.792 69.9025 21.104 68.6371 21.104ZM69.1571 18.764C70.0411 18.764 70.8298 18.556 71.5231 18.14C72.2165 17.7067 72.7625 17.126 73.1611 16.398C73.5598 15.6527 73.7591 14.8207 73.7591 13.902C73.7591 12.966 73.5598 12.134 73.1611 11.406C72.7625 10.6607 72.2165 10.08 71.5231 9.664C70.8298 9.23067 70.0411 9.014 69.1571 9.014C68.2905 9.014 67.5018 9.23067 66.7911 9.664C66.0978 10.08 65.5431 10.6607 65.1271 11.406C64.7285 12.134 64.5291 12.966 64.5291 13.902C64.5291 14.8207 64.7285 15.6527 65.1271 16.398C65.5431 17.126 66.0978 17.7067 66.7911 18.14C67.5018 18.556 68.2905 18.764 69.1571 18.764ZM74.9811 21.026C74.5998 21.026 74.2791 20.9047 74.0191 20.662C73.7765 20.402 73.6551 20.0813 73.6551 19.7V15.722L74.1491 12.966L76.3071 13.902V19.7C76.3071 20.0813 76.1771 20.402 75.9171 20.662C75.6745 20.9047 75.3625 21.026 74.9811 21.026Z" fill="#28263B"/>
</svg>
